<svg xmlns="http://www.w3.org/2000/svg" xmlns:xlink="http://www.w3.org/1999/xlink" version="1.1" x="0" y="0" viewBox="0 0 220 220" width="220" height="220">
<rect x="0" y="0" width="220" fill="none" height="220" stroke="none"></rect>
<g transform="translate(10, 10)">
<g shape-rendering="crispEdges" fill="#ffffff">
<rect x="43.24891891891892" y="0.01" width="5.404864864864865" height="5.404864864864865" rx="0"></rect>
<rect x="59.46351351351351" y="0.01" width="5.404864864864865" height="5.404864864864865" rx="0"></rect>
<rect x="102.70243243243245" y="0.01" width="5.404864864864865" height="5.404864864864865" rx="0"></rect>
<rect x="118.91702702702703" y="0.01" width="5.404864864864865" height="5.404864864864865" rx="0"></rect>
<rect x="129.72675675675674" y="0.01" width="5.404864864864865" height="5.404864864864865" rx="0"></rect>
<rect x="48.65378378378378" y="5.414864864864865" width="5.404864864864865" height="5.404864864864865" rx="0"></rect>
<rect x="59.46351351351351" y="5.414864864864865" width="5.404864864864865" height="5.404864864864865" rx="0"></rect>
<rect x="70.27324324324324" y="5.414864864864865" width="5.404864864864865" height="5.404864864864865" rx="0"></rect>
<rect x="86.48783783783784" y="5.414864864864865" width="5.404864864864865" height="5.404864864864865" rx="0"></rect>
<rect x="97.29756756756757" y="5.414864864864865" width="5.404864864864865" height="5.404864864864865" rx="0"></rect>
<rect x="113.51216216216217" y="5.414864864864865" width="5.404864864864865" height="5.404864864864865" rx="0"></rect>
<rect x="118.91702702702703" y="5.414864864864865" width="5.404864864864865" height="5.404864864864865" rx="0"></rect>
<rect x="140.53648648648647" y="5.414864864864865" width="5.404864864864865" height="5.404864864864865" rx="0"></rect>
<rect x="145.94135135135136" y="5.414864864864865" width="5.404864864864865" height="5.404864864864865" rx="0"></rect>
<rect x="59.46351351351351" y="10.81972972972973" width="5.404864864864865" height="5.404864864864865" rx="0"></rect>
<rect x="64.86837837837838" y="10.81972972972973" width="5.404864864864865" height="5.404864864864865" rx="0"></rect>
<rect x="70.27324324324324" y="10.81972972972973" width="5.404864864864865" height="5.404864864864865" rx="0"></rect>
<rect x="75.67810810810812" y="10.81972972972973" width="5.404864864864865" height="5.404864864864865" rx="0"></rect>
<rect x="81.08297297297298" y="10.81972972972973" width="5.404864864864865" height="5.404864864864865" rx="0"></rect>
<rect x="86.48783783783784" y="10.81972972972973" width="5.404864864864865" height="5.404864864864865" rx="0"></rect>
<rect x="108.10729729729731" y="10.81972972972973" width="5.404864864864865" height="5.404864864864865" rx="0"></rect>
<rect x="113.51216216216217" y="10.81972972972973" width="5.404864864864865" height="5.404864864864865" rx="0"></rect>
<rect x="129.72675675675674" y="10.81972972972973" width="5.404864864864865" height="5.404864864864865" rx="0"></rect>
<rect x="140.53648648648647" y="10.81972972972973" width="5.404864864864865" height="5.404864864864865" rx="0"></rect>
<rect x="145.94135135135136" y="10.81972972972973" width="5.404864864864865" height="5.404864864864865" rx="0"></rect>
<rect x="151.34621621621622" y="10.81972972972973" width="5.404864864864865" height="5.404864864864865" rx="0"></rect>
<rect x="48.65378378378378" y="16.224594594594596" width="5.404864864864865" height="5.404864864864865" rx="0"></rect>
<rect x="54.05864864864865" y="16.224594594594596" width="5.404864864864865" height="5.404864864864865" rx="0"></rect>
<rect x="59.46351351351351" y="16.224594594594596" width="5.404864864864865" height="5.404864864864865" rx="0"></rect>
<rect x="70.27324324324324" y="16.224594594594596" width="5.404864864864865" height="5.404864864864865" rx="0"></rect>
<rect x="81.08297297297298" y="16.224594594594596" width="5.404864864864865" height="5.404864864864865" rx="0"></rect>
<rect x="91.8927027027027" y="16.224594594594596" width="5.404864864864865" height="5.404864864864865" rx="0"></rect>
<rect x="102.70243243243245" y="16.224594594594596" width="5.404864864864865" height="5.404864864864865" rx="0"></rect>
<rect x="108.10729729729731" y="16.224594594594596" width="5.404864864864865" height="5.404864864864865" rx="0"></rect>
<rect x="118.91702702702703" y="16.224594594594596" width="5.404864864864865" height="5.404864864864865" rx="0"></rect>
<rect x="129.72675675675674" y="16.224594594594596" width="5.404864864864865" height="5.404864864864865" rx="0"></rect>
<rect x="140.53648648648647" y="16.224594594594596" width="5.404864864864865" height="5.404864864864865" rx="0"></rect>
<rect x="145.94135135135136" y="16.224594594594596" width="5.404864864864865" height="5.404864864864865" rx="0"></rect>
<rect x="43.24891891891892" y="21.62945945945946" width="5.404864864864865" height="5.404864864864865" rx="0"></rect>
<rect x="59.46351351351351" y="21.62945945945946" width="5.404864864864865" height="5.404864864864865" rx="0"></rect>
<rect x="64.86837837837838" y="21.62945945945946" width="5.404864864864865" height="5.404864864864865" rx="0"></rect>
<rect x="75.67810810810812" y="21.62945945945946" width="5.404864864864865" height="5.404864864864865" rx="0"></rect>
<rect x="81.08297297297298" y="21.62945945945946" width="5.404864864864865" height="5.404864864864865" rx="0"></rect>
<rect x="86.48783783783784" y="21.62945945945946" width="5.404864864864865" height="5.404864864864865" rx="0"></rect>
<rect x="102.70243243243245" y="21.62945945945946" width="5.404864864864865" height="5.404864864864865" rx="0"></rect>
<rect x="124.3218918918919" y="21.62945945945946" width="5.404864864864865" height="5.404864864864865" rx="0"></rect>
<rect x="140.53648648648647" y="21.62945945945946" width="5.404864864864865" height="5.404864864864865" rx="0"></rect>
<rect x="43.24891891891892" y="27.034324324324327" width="5.404864864864865" height="5.404864864864865" rx="0"></rect>
<rect x="48.65378378378378" y="27.034324324324327" width="5.404864864864865" height="5.404864864864865" rx="0"></rect>
<rect x="64.86837837837838" y="27.034324324324327" width="5.404864864864865" height="5.404864864864865" rx="0"></rect>
<rect x="75.67810810810812" y="27.034324324324327" width="5.404864864864865" height="5.404864864864865" rx="0"></rect>
<rect x="102.70243243243245" y="27.034324324324327" width="5.404864864864865" height="5.404864864864865" rx="0"></rect>
<rect x="108.10729729729731" y="27.034324324324327" width="5.404864864864865" height="5.404864864864865" rx="0"></rect>
<rect x="118.91702702702703" y="27.034324324324327" width="5.404864864864865" height="5.404864864864865" rx="0"></rect>
<rect x="145.94135135135136" y="27.034324324324327" width="5.404864864864865" height="5.404864864864865" rx="0"></rect>
<rect x="151.34621621621622" y="27.034324324324327" width="5.404864864864865" height="5.404864864864865" rx="0"></rect>
<rect x="43.24891891891892" y="32.439189189189186" width="5.404864864864865" height="5.404864864864865" rx="0"></rect>
<rect x="54.05864864864865" y="32.439189189189186" width="5.404864864864865" height="5.404864864864865" rx="0"></rect>
<rect x="64.86837837837838" y="32.439189189189186" width="5.404864864864865" height="5.404864864864865" rx="0"></rect>
<rect x="75.67810810810812" y="32.439189189189186" width="5.404864864864865" height="5.404864864864865" rx="0"></rect>
<rect x="86.48783783783784" y="32.439189189189186" width="5.404864864864865" height="5.404864864864865" rx="0"></rect>
<rect x="97.29756756756757" y="32.439189189189186" width="5.404864864864865" height="5.404864864864865" rx="0"></rect>
<rect x="108.10729729729731" y="32.439189189189186" width="5.404864864864865" height="5.404864864864865" rx="0"></rect>
<rect x="118.91702702702703" y="32.439189189189186" width="5.404864864864865" height="5.404864864864865" rx="0"></rect>
<rect x="129.72675675675674" y="32.439189189189186" width="5.404864864864865" height="5.404864864864865" rx="0"></rect>
<rect x="140.53648648648647" y="32.439189189189186" width="5.404864864864865" height="5.404864864864865" rx="0"></rect>
<rect x="151.34621621621622" y="32.439189189189186" width="5.404864864864865" height="5.404864864864865" rx="0"></rect>
<rect x="59.46351351351351" y="37.844054054054055" width="5.404864864864865" height="5.404864864864865" rx="0"></rect>
<rect x="70.27324324324324" y="37.844054054054055" width="5.404864864864865" height="5.404864864864865" rx="0"></rect>
<rect x="75.67810810810812" y="37.844054054054055" width="5.404864864864865" height="5.404864864864865" rx="0"></rect>
<rect x="86.48783783783784" y="37.844054054054055" width="5.404864864864865" height="5.404864864864865" rx="0"></rect>
<rect x="91.8927027027027" y="37.844054054054055" width="5.404864864864865" height="5.404864864864865" rx="0"></rect>
<rect x="97.29756756756757" y="37.844054054054055" width="5.404864864864865" height="5.404864864864865" rx="0"></rect>
<rect x="102.70243243243245" y="37.844054054054055" width="5.404864864864865" height="5.404864864864865" rx="0"></rect>
<rect x="108.10729729729731" y="37.844054054054055" width="5.404864864864865" height="5.404864864864865" rx="0"></rect>
<rect x="113.51216216216217" y="37.844054054054055" width="5.404864864864865" height="5.404864864864865" rx="0"></rect>
<rect x="118.91702702702703" y="37.844054054054055" width="5.404864864864865" height="5.404864864864865" rx="0"></rect>
<rect x="129.72675675675674" y="37.844054054054055" width="5.404864864864865" height="5.404864864864865" rx="0"></rect>
<rect x="140.53648648648647" y="37.844054054054055" width="5.404864864864865" height="5.404864864864865" rx="0"></rect>
<rect x="151.34621621621622" y="37.844054054054055" width="5.404864864864865" height="5.404864864864865" rx="0"></rect>
<rect x="5.414864864864865" y="43.24891891891892" width="5.404864864864865" height="5.404864864864865" rx="0"></rect>
<rect x="10.81972972972973" y="43.24891891891892" width="5.404864864864865" height="5.404864864864865" rx="0"></rect>
<rect x="16.224594594594596" y="43.24891891891892" width="5.404864864864865" height="5.404864864864865" rx="0"></rect>
<rect x="21.62945945945946" y="43.24891891891892" width="5.404864864864865" height="5.404864864864865" rx="0"></rect>
<rect x="27.034324324324327" y="43.24891891891892" width="5.404864864864865" height="5.404864864864865" rx="0"></rect>
<rect x="32.439189189189186" y="43.24891891891892" width="5.404864864864865" height="5.404864864864865" rx="0"></rect>
<rect x="37.844054054054055" y="43.24891891891892" width="5.404864864864865" height="5.404864864864865" rx="0"></rect>
<rect x="48.65378378378378" y="43.24891891891892" width="5.404864864864865" height="5.404864864864865" rx="0"></rect>
<rect x="59.46351351351351" y="43.24891891891892" width="5.404864864864865" height="5.404864864864865" rx="0"></rect>
<rect x="91.8927027027027" y="43.24891891891892" width="5.404864864864865" height="5.404864864864865" rx="0"></rect>
<rect x="97.29756756756757" y="43.24891891891892" width="5.404864864864865" height="5.404864864864865" rx="0"></rect>
<rect x="118.91702702702703" y="43.24891891891892" width="5.404864864864865" height="5.404864864864865" rx="0"></rect>
<rect x="129.72675675675674" y="43.24891891891892" width="5.404864864864865" height="5.404864864864865" rx="0"></rect>
<rect x="167.5608108108108" y="43.24891891891892" width="5.404864864864865" height="5.404864864864865" rx="0"></rect>
<rect x="172.96567567567567" y="43.24891891891892" width="5.404864864864865" height="5.404864864864865" rx="0"></rect>
<rect x="194.58513513513512" y="43.24891891891892" width="5.404864864864865" height="5.404864864864865" rx="0"></rect>
<rect x="5.414864864864865" y="48.65378378378378" width="5.404864864864865" height="5.404864864864865" rx="0"></rect>
<rect x="21.62945945945946" y="48.65378378378378" width="5.404864864864865" height="5.404864864864865" rx="0"></rect>
<rect x="27.034324324324327" y="48.65378378378378" width="5.404864864864865" height="5.404864864864865" rx="0"></rect>
<rect x="43.24891891891892" y="48.65378378378378" width="5.404864864864865" height="5.404864864864865" rx="0"></rect>
<rect x="48.65378378378378" y="48.65378378378378" width="5.404864864864865" height="5.404864864864865" rx="0"></rect>
<rect x="54.05864864864865" y="48.65378378378378" width="5.404864864864865" height="5.404864864864865" rx="0"></rect>
<rect x="59.46351351351351" y="48.65378378378378" width="5.404864864864865" height="5.404864864864865" rx="0"></rect>
<rect x="70.27324324324324" y="48.65378378378378" width="5.404864864864865" height="5.404864864864865" rx="0"></rect>
<rect x="86.48783783783784" y="48.65378378378378" width="5.404864864864865" height="5.404864864864865" rx="0"></rect>
<rect x="102.70243243243245" y="48.65378378378378" width="5.404864864864865" height="5.404864864864865" rx="0"></rect>
<rect x="108.10729729729731" y="48.65378378378378" width="5.404864864864865" height="5.404864864864865" rx="0"></rect>
<rect x="124.3218918918919" y="48.65378378378378" width="5.404864864864865" height="5.404864864864865" rx="0"></rect>
<rect x="129.72675675675674" y="48.65378378378378" width="5.404864864864865" height="5.404864864864865" rx="0"></rect>
<rect x="135.1316216216216" y="48.65378378378378" width="5.404864864864865" height="5.404864864864865" rx="0"></rect>
<rect x="140.53648648648647" y="48.65378378378378" width="5.404864864864865" height="5.404864864864865" rx="0"></rect>
<rect x="145.94135135135136" y="48.65378378378378" width="5.404864864864865" height="5.404864864864865" rx="0"></rect>
<rect x="151.34621621621622" y="48.65378378378378" width="5.404864864864865" height="5.404864864864865" rx="0"></rect>
<rect x="156.75108108108108" y="48.65378378378378" width="5.404864864864865" height="5.404864864864865" rx="0"></rect>
<rect x="162.15594594594594" y="48.65378378378378" width="5.404864864864865" height="5.404864864864865" rx="0"></rect>
<rect x="178.37054054054053" y="48.65378378378378" width="5.404864864864865" height="5.404864864864865" rx="0"></rect>
<rect x="189.18027027027026" y="48.65378378378378" width="5.404864864864865" height="5.404864864864865" rx="0"></rect>
<rect x="0.01" y="54.05864864864865" width="5.404864864864865" height="5.404864864864865" rx="0"></rect>
<rect x="21.62945945945946" y="54.05864864864865" width="5.404864864864865" height="5.404864864864865" rx="0"></rect>
<rect x="27.034324324324327" y="54.05864864864865" width="5.404864864864865" height="5.404864864864865" rx="0"></rect>
<rect x="32.439189189189186" y="54.05864864864865" width="5.404864864864865" height="5.404864864864865" rx="0"></rect>
<rect x="43.24891891891892" y="54.05864864864865" width="5.404864864864865" height="5.404864864864865" rx="0"></rect>
<rect x="54.05864864864865" y="54.05864864864865" width="5.404864864864865" height="5.404864864864865" rx="0"></rect>
<rect x="59.46351351351351" y="54.05864864864865" width="5.404864864864865" height="5.404864864864865" rx="0"></rect>
<rect x="70.27324324324324" y="54.05864864864865" width="5.404864864864865" height="5.404864864864865" rx="0"></rect>
<rect x="75.67810810810812" y="54.05864864864865" width="5.404864864864865" height="5.404864864864865" rx="0"></rect>
<rect x="81.08297297297298" y="54.05864864864865" width="5.404864864864865" height="5.404864864864865" rx="0"></rect>
<rect x="91.8927027027027" y="54.05864864864865" width="5.404864864864865" height="5.404864864864865" rx="0"></rect>
<rect x="113.51216216216217" y="54.05864864864865" width="5.404864864864865" height="5.404864864864865" rx="0"></rect>
<rect x="118.91702702702703" y="54.05864864864865" width="5.404864864864865" height="5.404864864864865" rx="0"></rect>
<rect x="135.1316216216216" y="54.05864864864865" width="5.404864864864865" height="5.404864864864865" rx="0"></rect>
<rect x="140.53648648648647" y="54.05864864864865" width="5.404864864864865" height="5.404864864864865" rx="0"></rect>
<rect x="162.15594594594594" y="54.05864864864865" width="5.404864864864865" height="5.404864864864865" rx="0"></rect>
<rect x="167.5608108108108" y="54.05864864864865" width="5.404864864864865" height="5.404864864864865" rx="0"></rect>
<rect x="178.37054054054053" y="54.05864864864865" width="5.404864864864865" height="5.404864864864865" rx="0"></rect>
<rect x="183.7754054054054" y="54.05864864864865" width="5.404864864864865" height="5.404864864864865" rx="0"></rect>
<rect x="189.18027027027026" y="54.05864864864865" width="5.404864864864865" height="5.404864864864865" rx="0"></rect>
<rect x="194.58513513513512" y="54.05864864864865" width="5.404864864864865" height="5.404864864864865" rx="0"></rect>
<rect x="10.81972972972973" y="59.46351351351351" width="5.404864864864865" height="5.404864864864865" rx="0"></rect>
<rect x="16.224594594594596" y="59.46351351351351" width="5.404864864864865" height="5.404864864864865" rx="0"></rect>
<rect x="27.034324324324327" y="59.46351351351351" width="5.404864864864865" height="5.404864864864865" rx="0"></rect>
<rect x="37.844054054054055" y="59.46351351351351" width="5.404864864864865" height="5.404864864864865" rx="0"></rect>
<rect x="43.24891891891892" y="59.46351351351351" width="5.404864864864865" height="5.404864864864865" rx="0"></rect>
<rect x="54.05864864864865" y="59.46351351351351" width="5.404864864864865" height="5.404864864864865" rx="0"></rect>
<rect x="59.46351351351351" y="59.46351351351351" width="5.404864864864865" height="5.404864864864865" rx="0"></rect>
<rect x="70.27324324324324" y="59.46351351351351" width="5.404864864864865" height="5.404864864864865" rx="0"></rect>
<rect x="75.67810810810812" y="59.46351351351351" width="5.404864864864865" height="5.404864864864865" rx="0"></rect>
<rect x="86.48783783783784" y="59.46351351351351" width="5.404864864864865" height="5.404864864864865" rx="0"></rect>
<rect x="91.8927027027027" y="59.46351351351351" width="5.404864864864865" height="5.404864864864865" rx="0"></rect>
<rect x="97.29756756756757" y="59.46351351351351" width="5.404864864864865" height="5.404864864864865" rx="0"></rect>
<rect x="108.10729729729731" y="59.46351351351351" width="5.404864864864865" height="5.404864864864865" rx="0"></rect>
<rect x="113.51216216216217" y="59.46351351351351" width="5.404864864864865" height="5.404864864864865" rx="0"></rect>
<rect x="118.91702702702703" y="59.46351351351351" width="5.404864864864865" height="5.404864864864865" rx="0"></rect>
<rect x="124.3218918918919" y="59.46351351351351" width="5.404864864864865" height="5.404864864864865" rx="0"></rect>
<rect x="140.53648648648647" y="59.46351351351351" width="5.404864864864865" height="5.404864864864865" rx="0"></rect>
<rect x="151.34621621621622" y="59.46351351351351" width="5.404864864864865" height="5.404864864864865" rx="0"></rect>
<rect x="162.15594594594594" y="59.46351351351351" width="5.404864864864865" height="5.404864864864865" rx="0"></rect>
<rect x="189.18027027027026" y="59.46351351351351" width="5.404864864864865" height="5.404864864864865" rx="0"></rect>
<rect x="194.58513513513512" y="59.46351351351351" width="5.404864864864865" height="5.404864864864865" rx="0"></rect>
<rect x="0.01" y="64.86837837837838" width="5.404864864864865" height="5.404864864864865" rx="0"></rect>
<rect x="27.034324324324327" y="64.86837837837838" width="5.404864864864865" height="5.404864864864865" rx="0"></rect>
<rect x="32.439189189189186" y="64.86837837837838" width="5.404864864864865" height="5.404864864864865" rx="0"></rect>
<rect x="43.24891891891892" y="64.86837837837838" width="5.404864864864865" height="5.404864864864865" rx="0"></rect>
<rect x="59.46351351351351" y="64.86837837837838" width="5.404864864864865" height="5.404864864864865" rx="0"></rect>
<rect x="64.86837837837838" y="64.86837837837838" width="5.404864864864865" height="5.404864864864865" rx="0"></rect>
<rect x="70.27324324324324" y="64.86837837837838" width="5.404864864864865" height="5.404864864864865" rx="0"></rect>
<rect x="102.70243243243245" y="64.86837837837838" width="5.404864864864865" height="5.404864864864865" rx="0"></rect>
<rect x="108.10729729729731" y="64.86837837837838" width="5.404864864864865" height="5.404864864864865" rx="0"></rect>
<rect x="118.91702702702703" y="64.86837837837838" width="5.404864864864865" height="5.404864864864865" rx="0"></rect>
<rect x="124.3218918918919" y="64.86837837837838" width="5.404864864864865" height="5.404864864864865" rx="0"></rect>
<rect x="129.72675675675674" y="64.86837837837838" width="5.404864864864865" height="5.404864864864865" rx="0"></rect>
<rect x="135.1316216216216" y="64.86837837837838" width="5.404864864864865" height="5.404864864864865" rx="0"></rect>
<rect x="140.53648648648647" y="64.86837837837838" width="5.404864864864865" height="5.404864864864865" rx="0"></rect>
<rect x="156.75108108108108" y="64.86837837837838" width="5.404864864864865" height="5.404864864864865" rx="0"></rect>
<rect x="162.15594594594594" y="64.86837837837838" width="5.404864864864865" height="5.404864864864865" rx="0"></rect>
<rect x="172.96567567567567" y="64.86837837837838" width="5.404864864864865" height="5.404864864864865" rx="0"></rect>
<rect x="178.37054054054053" y="64.86837837837838" width="5.404864864864865" height="5.404864864864865" rx="0"></rect>
<rect x="183.7754054054054" y="64.86837837837838" width="5.404864864864865" height="5.404864864864865" rx="0"></rect>
<rect x="189.18027027027026" y="64.86837837837838" width="5.404864864864865" height="5.404864864864865" rx="0"></rect>
<rect x="16.224594594594596" y="70.27324324324324" width="5.404864864864865" height="5.404864864864865" rx="0"></rect>
<rect x="27.034324324324327" y="70.27324324324324" width="5.404864864864865" height="5.404864864864865" rx="0"></rect>
<rect x="48.65378378378378" y="70.27324324324324" width="5.404864864864865" height="5.404864864864865" rx="0"></rect>
<rect x="54.05864864864865" y="70.27324324324324" width="5.404864864864865" height="5.404864864864865" rx="0"></rect>
<rect x="75.67810810810812" y="70.27324324324324" width="5.404864864864865" height="5.404864864864865" rx="0"></rect>
<rect x="91.8927027027027" y="70.27324324324324" width="5.404864864864865" height="5.404864864864865" rx="0"></rect>
<rect x="102.70243243243245" y="70.27324324324324" width="5.404864864864865" height="5.404864864864865" rx="0"></rect>
<rect x="124.3218918918919" y="70.27324324324324" width="5.404864864864865" height="5.404864864864865" rx="0"></rect>
<rect x="135.1316216216216" y="70.27324324324324" width="5.404864864864865" height="5.404864864864865" rx="0"></rect>
<rect x="151.34621621621622" y="70.27324324324324" width="5.404864864864865" height="5.404864864864865" rx="0"></rect>
<rect x="156.75108108108108" y="70.27324324324324" width="5.404864864864865" height="5.404864864864865" rx="0"></rect>
<rect x="167.5608108108108" y="70.27324324324324" width="5.404864864864865" height="5.404864864864865" rx="0"></rect>
<rect x="178.37054054054053" y="70.27324324324324" width="5.404864864864865" height="5.404864864864865" rx="0"></rect>
<rect x="183.7754054054054" y="70.27324324324324" width="5.404864864864865" height="5.404864864864865" rx="0"></rect>
<rect x="189.18027027027026" y="70.27324324324324" width="5.404864864864865" height="5.404864864864865" rx="0"></rect>
<rect x="0.01" y="75.67810810810812" width="5.404864864864865" height="5.404864864864865" rx="0"></rect>
<rect x="10.81972972972973" y="75.67810810810812" width="5.404864864864865" height="5.404864864864865" rx="0"></rect>
<rect x="16.224594594594596" y="75.67810810810812" width="5.404864864864865" height="5.404864864864865" rx="0"></rect>
<rect x="21.62945945945946" y="75.67810810810812" width="5.404864864864865" height="5.404864864864865" rx="0"></rect>
<rect x="32.439189189189186" y="75.67810810810812" width="5.404864864864865" height="5.404864864864865" rx="0"></rect>
<rect x="43.24891891891892" y="75.67810810810812" width="5.404864864864865" height="5.404864864864865" rx="0"></rect>
<rect x="64.86837837837838" y="75.67810810810812" width="5.404864864864865" height="5.404864864864865" rx="0"></rect>
<rect x="81.08297297297298" y="75.67810810810812" width="5.404864864864865" height="5.404864864864865" rx="0"></rect>
<rect x="86.48783783783784" y="75.67810810810812" width="5.404864864864865" height="5.404864864864865" rx="0"></rect>
<rect x="91.8927027027027" y="75.67810810810812" width="5.404864864864865" height="5.404864864864865" rx="0"></rect>
<rect x="97.29756756756757" y="75.67810810810812" width="5.404864864864865" height="5.404864864864865" rx="0"></rect>
<rect x="102.70243243243245" y="75.67810810810812" width="5.404864864864865" height="5.404864864864865" rx="0"></rect>
<rect x="118.91702702702703" y="75.67810810810812" width="5.404864864864865" height="5.404864864864865" rx="0"></rect>
<rect x="129.72675675675674" y="75.67810810810812" width="5.404864864864865" height="5.404864864864865" rx="0"></rect>
<rect x="135.1316216216216" y="75.67810810810812" width="5.404864864864865" height="5.404864864864865" rx="0"></rect>
<rect x="140.53648648648647" y="75.67810810810812" width="5.404864864864865" height="5.404864864864865" rx="0"></rect>
<rect x="145.94135135135136" y="75.67810810810812" width="5.404864864864865" height="5.404864864864865" rx="0"></rect>
<rect x="151.34621621621622" y="75.67810810810812" width="5.404864864864865" height="5.404864864864865" rx="0"></rect>
<rect x="156.75108108108108" y="75.67810810810812" width="5.404864864864865" height="5.404864864864865" rx="0"></rect>
<rect x="178.37054054054053" y="75.67810810810812" width="5.404864864864865" height="5.404864864864865" rx="0"></rect>
<rect x="189.18027027027026" y="75.67810810810812" width="5.404864864864865" height="5.404864864864865" rx="0"></rect>
<rect x="194.58513513513512" y="75.67810810810812" width="5.404864864864865" height="5.404864864864865" rx="0"></rect>
<rect x="16.224594594594596" y="81.08297297297298" width="5.404864864864865" height="5.404864864864865" rx="0"></rect>
<rect x="21.62945945945946" y="81.08297297297298" width="5.404864864864865" height="5.404864864864865" rx="0"></rect>
<rect x="27.034324324324327" y="81.08297297297298" width="5.404864864864865" height="5.404864864864865" rx="0"></rect>
<rect x="37.844054054054055" y="81.08297297297298" width="5.404864864864865" height="5.404864864864865" rx="0"></rect>
<rect x="43.24891891891892" y="81.08297297297298" width="5.404864864864865" height="5.404864864864865" rx="0"></rect>
<rect x="48.65378378378378" y="81.08297297297298" width="5.404864864864865" height="5.404864864864865" rx="0"></rect>
<rect x="59.46351351351351" y="81.08297297297298" width="5.404864864864865" height="5.404864864864865" rx="0"></rect>
<rect x="64.86837837837838" y="81.08297297297298" width="5.404864864864865" height="5.404864864864865" rx="0"></rect>
<rect x="75.67810810810812" y="81.08297297297298" width="5.404864864864865" height="5.404864864864865" rx="0"></rect>
<rect x="81.08297297297298" y="81.08297297297298" width="5.404864864864865" height="5.404864864864865" rx="0"></rect>
<rect x="91.8927027027027" y="81.08297297297298" width="5.404864864864865" height="5.404864864864865" rx="0"></rect>
<rect x="97.29756756756757" y="81.08297297297298" width="5.404864864864865" height="5.404864864864865" rx="0"></rect>
<rect x="102.70243243243245" y="81.08297297297298" width="5.404864864864865" height="5.404864864864865" rx="0"></rect>
<rect x="140.53648648648647" y="81.08297297297298" width="5.404864864864865" height="5.404864864864865" rx="0"></rect>
<rect x="167.5608108108108" y="81.08297297297298" width="5.404864864864865" height="5.404864864864865" rx="0"></rect>
<rect x="5.414864864864865" y="86.48783783783784" width="5.404864864864865" height="5.404864864864865" rx="0"></rect>
<rect x="10.81972972972973" y="86.48783783783784" width="5.404864864864865" height="5.404864864864865" rx="0"></rect>
<rect x="16.224594594594596" y="86.48783783783784" width="5.404864864864865" height="5.404864864864865" rx="0"></rect>
<rect x="21.62945945945946" y="86.48783783783784" width="5.404864864864865" height="5.404864864864865" rx="0"></rect>
<rect x="32.439189189189186" y="86.48783783783784" width="5.404864864864865" height="5.404864864864865" rx="0"></rect>
<rect x="48.65378378378378" y="86.48783783783784" width="5.404864864864865" height="5.404864864864865" rx="0"></rect>
<rect x="54.05864864864865" y="86.48783783783784" width="5.404864864864865" height="5.404864864864865" rx="0"></rect>
<rect x="75.67810810810812" y="86.48783783783784" width="5.404864864864865" height="5.404864864864865" rx="0"></rect>
<rect x="86.48783783783784" y="86.48783783783784" width="5.404864864864865" height="5.404864864864865" rx="0"></rect>
<rect x="97.29756756756757" y="86.48783783783784" width="5.404864864864865" height="5.404864864864865" rx="0"></rect>
<rect x="108.10729729729731" y="86.48783783783784" width="5.404864864864865" height="5.404864864864865" rx="0"></rect>
<rect x="113.51216216216217" y="86.48783783783784" width="5.404864864864865" height="5.404864864864865" rx="0"></rect>
<rect x="118.91702702702703" y="86.48783783783784" width="5.404864864864865" height="5.404864864864865" rx="0"></rect>
<rect x="129.72675675675674" y="86.48783783783784" width="5.404864864864865" height="5.404864864864865" rx="0"></rect>
<rect x="135.1316216216216" y="86.48783783783784" width="5.404864864864865" height="5.404864864864865" rx="0"></rect>
<rect x="140.53648648648647" y="86.48783783783784" width="5.404864864864865" height="5.404864864864865" rx="0"></rect>
<rect x="145.94135135135136" y="86.48783783783784" width="5.404864864864865" height="5.404864864864865" rx="0"></rect>
<rect x="151.34621621621622" y="86.48783783783784" width="5.404864864864865" height="5.404864864864865" rx="0"></rect>
<rect x="156.75108108108108" y="86.48783783783784" width="5.404864864864865" height="5.404864864864865" rx="0"></rect>
<rect x="162.15594594594594" y="86.48783783783784" width="5.404864864864865" height="5.404864864864865" rx="0"></rect>
<rect x="172.96567567567567" y="86.48783783783784" width="5.404864864864865" height="5.404864864864865" rx="0"></rect>
<rect x="183.7754054054054" y="86.48783783783784" width="5.404864864864865" height="5.404864864864865" rx="0"></rect>
<rect x="189.18027027027026" y="86.48783783783784" width="5.404864864864865" height="5.404864864864865" rx="0"></rect>
<rect x="37.844054054054055" y="91.8927027027027" width="5.404864864864865" height="5.404864864864865" rx="0"></rect>
<rect x="43.24891891891892" y="91.8927027027027" width="5.404864864864865" height="5.404864864864865" rx="0"></rect>
<rect x="54.05864864864865" y="91.8927027027027" width="5.404864864864865" height="5.404864864864865" rx="0"></rect>
<rect x="70.27324324324324" y="91.8927027027027" width="5.404864864864865" height="5.404864864864865" rx="0"></rect>
<rect x="75.67810810810812" y="91.8927027027027" width="5.404864864864865" height="5.404864864864865" rx="0"></rect>
<rect x="91.8927027027027" y="91.8927027027027" width="5.404864864864865" height="5.404864864864865" rx="0"></rect>
<rect x="102.70243243243245" y="91.8927027027027" width="5.404864864864865" height="5.404864864864865" rx="0"></rect>
<rect x="108.10729729729731" y="91.8927027027027" width="5.404864864864865" height="5.404864864864865" rx="0"></rect>
<rect x="113.51216216216217" y="91.8927027027027" width="5.404864864864865" height="5.404864864864865" rx="0"></rect>
<rect x="135.1316216216216" y="91.8927027027027" width="5.404864864864865" height="5.404864864864865" rx="0"></rect>
<rect x="151.34621621621622" y="91.8927027027027" width="5.404864864864865" height="5.404864864864865" rx="0"></rect>
<rect x="178.37054054054053" y="91.8927027027027" width="5.404864864864865" height="5.404864864864865" rx="0"></rect>
<rect x="0.01" y="97.29756756756757" width="5.404864864864865" height="5.404864864864865" rx="0"></rect>
<rect x="5.414864864864865" y="97.29756756756757" width="5.404864864864865" height="5.404864864864865" rx="0"></rect>
<rect x="32.439189189189186" y="97.29756756756757" width="5.404864864864865" height="5.404864864864865" rx="0"></rect>
<rect x="37.844054054054055" y="97.29756756756757" width="5.404864864864865" height="5.404864864864865" rx="0"></rect>
<rect x="75.67810810810812" y="97.29756756756757" width="5.404864864864865" height="5.404864864864865" rx="0"></rect>
<rect x="81.08297297297298" y="97.29756756756757" width="5.404864864864865" height="5.404864864864865" rx="0"></rect>
<rect x="91.8927027027027" y="97.29756756756757" width="5.404864864864865" height="5.404864864864865" rx="0"></rect>
<rect x="97.29756756756757" y="97.29756756756757" width="5.404864864864865" height="5.404864864864865" rx="0"></rect>
<rect x="102.70243243243245" y="97.29756756756757" width="5.404864864864865" height="5.404864864864865" rx="0"></rect>
<rect x="113.51216216216217" y="97.29756756756757" width="5.404864864864865" height="5.404864864864865" rx="0"></rect>
<rect x="124.3218918918919" y="97.29756756756757" width="5.404864864864865" height="5.404864864864865" rx="0"></rect>
<rect x="129.72675675675674" y="97.29756756756757" width="5.404864864864865" height="5.404864864864865" rx="0"></rect>
<rect x="135.1316216216216" y="97.29756756756757" width="5.404864864864865" height="5.404864864864865" rx="0"></rect>
<rect x="140.53648648648647" y="97.29756756756757" width="5.404864864864865" height="5.404864864864865" rx="0"></rect>
<rect x="145.94135135135136" y="97.29756756756757" width="5.404864864864865" height="5.404864864864865" rx="0"></rect>
<rect x="151.34621621621622" y="97.29756756756757" width="5.404864864864865" height="5.404864864864865" rx="0"></rect>
<rect x="156.75108108108108" y="97.29756756756757" width="5.404864864864865" height="5.404864864864865" rx="0"></rect>
<rect x="162.15594594594594" y="97.29756756756757" width="5.404864864864865" height="5.404864864864865" rx="0"></rect>
<rect x="178.37054054054053" y="97.29756756756757" width="5.404864864864865" height="5.404864864864865" rx="0"></rect>
<rect x="183.7754054054054" y="97.29756756756757" width="5.404864864864865" height="5.404864864864865" rx="0"></rect>
<rect x="189.18027027027026" y="97.29756756756757" width="5.404864864864865" height="5.404864864864865" rx="0"></rect>
<rect x="194.58513513513512" y="97.29756756756757" width="5.404864864864865" height="5.404864864864865" rx="0"></rect>
<rect x="0.01" y="102.70243243243245" width="5.404864864864865" height="5.404864864864865" rx="0"></rect>
<rect x="10.81972972972973" y="102.70243243243245" width="5.404864864864865" height="5.404864864864865" rx="0"></rect>
<rect x="21.62945945945946" y="102.70243243243245" width="5.404864864864865" height="5.404864864864865" rx="0"></rect>
<rect x="27.034324324324327" y="102.70243243243245" width="5.404864864864865" height="5.404864864864865" rx="0"></rect>
<rect x="37.844054054054055" y="102.70243243243245" width="5.404864864864865" height="5.404864864864865" rx="0"></rect>
<rect x="43.24891891891892" y="102.70243243243245" width="5.404864864864865" height="5.404864864864865" rx="0"></rect>
<rect x="81.08297297297298" y="102.70243243243245" width="5.404864864864865" height="5.404864864864865" rx="0"></rect>
<rect x="97.29756756756757" y="102.70243243243245" width="5.404864864864865" height="5.404864864864865" rx="0"></rect>
<rect x="102.70243243243245" y="102.70243243243245" width="5.404864864864865" height="5.404864864864865" rx="0"></rect>
<rect x="108.10729729729731" y="102.70243243243245" width="5.404864864864865" height="5.404864864864865" rx="0"></rect>
<rect x="113.51216216216217" y="102.70243243243245" width="5.404864864864865" height="5.404864864864865" rx="0"></rect>
<rect x="118.91702702702703" y="102.70243243243245" width="5.404864864864865" height="5.404864864864865" rx="0"></rect>
<rect x="124.3218918918919" y="102.70243243243245" width="5.404864864864865" height="5.404864864864865" rx="0"></rect>
<rect x="140.53648648648647" y="102.70243243243245" width="5.404864864864865" height="5.404864864864865" rx="0"></rect>
<rect x="145.94135135135136" y="102.70243243243245" width="5.404864864864865" height="5.404864864864865" rx="0"></rect>
<rect x="151.34621621621622" y="102.70243243243245" width="5.404864864864865" height="5.404864864864865" rx="0"></rect>
<rect x="156.75108108108108" y="102.70243243243245" width="5.404864864864865" height="5.404864864864865" rx="0"></rect>
<rect x="162.15594594594594" y="102.70243243243245" width="5.404864864864865" height="5.404864864864865" rx="0"></rect>
<rect x="189.18027027027026" y="102.70243243243245" width="5.404864864864865" height="5.404864864864865" rx="0"></rect>
<rect x="5.414864864864865" y="108.10729729729731" width="5.404864864864865" height="5.404864864864865" rx="0"></rect>
<rect x="10.81972972972973" y="108.10729729729731" width="5.404864864864865" height="5.404864864864865" rx="0"></rect>
<rect x="21.62945945945946" y="108.10729729729731" width="5.404864864864865" height="5.404864864864865" rx="0"></rect>
<rect x="27.034324324324327" y="108.10729729729731" width="5.404864864864865" height="5.404864864864865" rx="0"></rect>
<rect x="32.439189189189186" y="108.10729729729731" width="5.404864864864865" height="5.404864864864865" rx="0"></rect>
<rect x="43.24891891891892" y="108.10729729729731" width="5.404864864864865" height="5.404864864864865" rx="0"></rect>
<rect x="48.65378378378378" y="108.10729729729731" width="5.404864864864865" height="5.404864864864865" rx="0"></rect>
<rect x="59.46351351351351" y="108.10729729729731" width="5.404864864864865" height="5.404864864864865" rx="0"></rect>
<rect x="70.27324324324324" y="108.10729729729731" width="5.404864864864865" height="5.404864864864865" rx="0"></rect>
<rect x="81.08297297297298" y="108.10729729729731" width="5.404864864864865" height="5.404864864864865" rx="0"></rect>
<rect x="91.8927027027027" y="108.10729729729731" width="5.404864864864865" height="5.404864864864865" rx="0"></rect>
<rect x="102.70243243243245" y="108.10729729729731" width="5.404864864864865" height="5.404864864864865" rx="0"></rect>
<rect x="118.91702702702703" y="108.10729729729731" width="5.404864864864865" height="5.404864864864865" rx="0"></rect>
<rect x="124.3218918918919" y="108.10729729729731" width="5.404864864864865" height="5.404864864864865" rx="0"></rect>
<rect x="129.72675675675674" y="108.10729729729731" width="5.404864864864865" height="5.404864864864865" rx="0"></rect>
<rect x="135.1316216216216" y="108.10729729729731" width="5.404864864864865" height="5.404864864864865" rx="0"></rect>
<rect x="140.53648648648647" y="108.10729729729731" width="5.404864864864865" height="5.404864864864865" rx="0"></rect>
<rect x="145.94135135135136" y="108.10729729729731" width="5.404864864864865" height="5.404864864864865" rx="0"></rect>
<rect x="156.75108108108108" y="108.10729729729731" width="5.404864864864865" height="5.404864864864865" rx="0"></rect>
<rect x="162.15594594594594" y="108.10729729729731" width="5.404864864864865" height="5.404864864864865" rx="0"></rect>
<rect x="167.5608108108108" y="108.10729729729731" width="5.404864864864865" height="5.404864864864865" rx="0"></rect>
<rect x="172.96567567567567" y="108.10729729729731" width="5.404864864864865" height="5.404864864864865" rx="0"></rect>
<rect x="178.37054054054053" y="108.10729729729731" width="5.404864864864865" height="5.404864864864865" rx="0"></rect>
<rect x="183.7754054054054" y="108.10729729729731" width="5.404864864864865" height="5.404864864864865" rx="0"></rect>
<rect x="189.18027027027026" y="108.10729729729731" width="5.404864864864865" height="5.404864864864865" rx="0"></rect>
<rect x="0.01" y="113.51216216216217" width="5.404864864864865" height="5.404864864864865" rx="0"></rect>
<rect x="37.844054054054055" y="113.51216216216217" width="5.404864864864865" height="5.404864864864865" rx="0"></rect>
<rect x="43.24891891891892" y="113.51216216216217" width="5.404864864864865" height="5.404864864864865" rx="0"></rect>
<rect x="64.86837837837838" y="113.51216216216217" width="5.404864864864865" height="5.404864864864865" rx="0"></rect>
<rect x="70.27324324324324" y="113.51216216216217" width="5.404864864864865" height="5.404864864864865" rx="0"></rect>
<rect x="81.08297297297298" y="113.51216216216217" width="5.404864864864865" height="5.404864864864865" rx="0"></rect>
<rect x="91.8927027027027" y="113.51216216216217" width="5.404864864864865" height="5.404864864864865" rx="0"></rect>
<rect x="97.29756756756757" y="113.51216216216217" width="5.404864864864865" height="5.404864864864865" rx="0"></rect>
<rect x="108.10729729729731" y="113.51216216216217" width="5.404864864864865" height="5.404864864864865" rx="0"></rect>
<rect x="113.51216216216217" y="113.51216216216217" width="5.404864864864865" height="5.404864864864865" rx="0"></rect>
<rect x="124.3218918918919" y="113.51216216216217" width="5.404864864864865" height="5.404864864864865" rx="0"></rect>
<rect x="135.1316216216216" y="113.51216216216217" width="5.404864864864865" height="5.404864864864865" rx="0"></rect>
<rect x="167.5608108108108" y="113.51216216216217" width="5.404864864864865" height="5.404864864864865" rx="0"></rect>
<rect x="178.37054054054053" y="113.51216216216217" width="5.404864864864865" height="5.404864864864865" rx="0"></rect>
<rect x="189.18027027027026" y="113.51216216216217" width="5.404864864864865" height="5.404864864864865" rx="0"></rect>
<rect x="0.01" y="118.91702702702703" width="5.404864864864865" height="5.404864864864865" rx="0"></rect>
<rect x="5.414864864864865" y="118.91702702702703" width="5.404864864864865" height="5.404864864864865" rx="0"></rect>
<rect x="10.81972972972973" y="118.91702702702703" width="5.404864864864865" height="5.404864864864865" rx="0"></rect>
<rect x="21.62945945945946" y="118.91702702702703" width="5.404864864864865" height="5.404864864864865" rx="0"></rect>
<rect x="27.034324324324327" y="118.91702702702703" width="5.404864864864865" height="5.404864864864865" rx="0"></rect>
<rect x="32.439189189189186" y="118.91702702702703" width="5.404864864864865" height="5.404864864864865" rx="0"></rect>
<rect x="48.65378378378378" y="118.91702702702703" width="5.404864864864865" height="5.404864864864865" rx="0"></rect>
<rect x="70.27324324324324" y="118.91702702702703" width="5.404864864864865" height="5.404864864864865" rx="0"></rect>
<rect x="75.67810810810812" y="118.91702702702703" width="5.404864864864865" height="5.404864864864865" rx="0"></rect>
<rect x="86.48783783783784" y="118.91702702702703" width="5.404864864864865" height="5.404864864864865" rx="0"></rect>
<rect x="97.29756756756757" y="118.91702702702703" width="5.404864864864865" height="5.404864864864865" rx="0"></rect>
<rect x="129.72675675675674" y="118.91702702702703" width="5.404864864864865" height="5.404864864864865" rx="0"></rect>
<rect x="135.1316216216216" y="118.91702702702703" width="5.404864864864865" height="5.404864864864865" rx="0"></rect>
<rect x="140.53648648648647" y="118.91702702702703" width="5.404864864864865" height="5.404864864864865" rx="0"></rect>
<rect x="145.94135135135136" y="118.91702702702703" width="5.404864864864865" height="5.404864864864865" rx="0"></rect>
<rect x="156.75108108108108" y="118.91702702702703" width="5.404864864864865" height="5.404864864864865" rx="0"></rect>
<rect x="178.37054054054053" y="118.91702702702703" width="5.404864864864865" height="5.404864864864865" rx="0"></rect>
<rect x="189.18027027027026" y="118.91702702702703" width="5.404864864864865" height="5.404864864864865" rx="0"></rect>
<rect x="194.58513513513512" y="118.91702702702703" width="5.404864864864865" height="5.404864864864865" rx="0"></rect>
<rect x="5.414864864864865" y="124.3218918918919" width="5.404864864864865" height="5.404864864864865" rx="0"></rect>
<rect x="10.81972972972973" y="124.3218918918919" width="5.404864864864865" height="5.404864864864865" rx="0"></rect>
<rect x="16.224594594594596" y="124.3218918918919" width="5.404864864864865" height="5.404864864864865" rx="0"></rect>
<rect x="59.46351351351351" y="124.3218918918919" width="5.404864864864865" height="5.404864864864865" rx="0"></rect>
<rect x="70.27324324324324" y="124.3218918918919" width="5.404864864864865" height="5.404864864864865" rx="0"></rect>
<rect x="75.67810810810812" y="124.3218918918919" width="5.404864864864865" height="5.404864864864865" rx="0"></rect>
<rect x="81.08297297297298" y="124.3218918918919" width="5.404864864864865" height="5.404864864864865" rx="0"></rect>
<rect x="86.48783783783784" y="124.3218918918919" width="5.404864864864865" height="5.404864864864865" rx="0"></rect>
<rect x="91.8927027027027" y="124.3218918918919" width="5.404864864864865" height="5.404864864864865" rx="0"></rect>
<rect x="102.70243243243245" y="124.3218918918919" width="5.404864864864865" height="5.404864864864865" rx="0"></rect>
<rect x="113.51216216216217" y="124.3218918918919" width="5.404864864864865" height="5.404864864864865" rx="0"></rect>
<rect x="118.91702702702703" y="124.3218918918919" width="5.404864864864865" height="5.404864864864865" rx="0"></rect>
<rect x="124.3218918918919" y="124.3218918918919" width="5.404864864864865" height="5.404864864864865" rx="0"></rect>
<rect x="129.72675675675674" y="124.3218918918919" width="5.404864864864865" height="5.404864864864865" rx="0"></rect>
<rect x="135.1316216216216" y="124.3218918918919" width="5.404864864864865" height="5.404864864864865" rx="0"></rect>
<rect x="167.5608108108108" y="124.3218918918919" width="5.404864864864865" height="5.404864864864865" rx="0"></rect>
<rect x="189.18027027027026" y="124.3218918918919" width="5.404864864864865" height="5.404864864864865" rx="0"></rect>
<rect x="0.01" y="129.72675675675674" width="5.404864864864865" height="5.404864864864865" rx="0"></rect>
<rect x="21.62945945945946" y="129.72675675675674" width="5.404864864864865" height="5.404864864864865" rx="0"></rect>
<rect x="32.439189189189186" y="129.72675675675674" width="5.404864864864865" height="5.404864864864865" rx="0"></rect>
<rect x="48.65378378378378" y="129.72675675675674" width="5.404864864864865" height="5.404864864864865" rx="0"></rect>
<rect x="64.86837837837838" y="129.72675675675674" width="5.404864864864865" height="5.404864864864865" rx="0"></rect>
<rect x="86.48783783783784" y="129.72675675675674" width="5.404864864864865" height="5.404864864864865" rx="0"></rect>
<rect x="91.8927027027027" y="129.72675675675674" width="5.404864864864865" height="5.404864864864865" rx="0"></rect>
<rect x="97.29756756756757" y="129.72675675675674" width="5.404864864864865" height="5.404864864864865" rx="0"></rect>
<rect x="118.91702702702703" y="129.72675675675674" width="5.404864864864865" height="5.404864864864865" rx="0"></rect>
<rect x="129.72675675675674" y="129.72675675675674" width="5.404864864864865" height="5.404864864864865" rx="0"></rect>
<rect x="140.53648648648647" y="129.72675675675674" width="5.404864864864865" height="5.404864864864865" rx="0"></rect>
<rect x="151.34621621621622" y="129.72675675675674" width="5.404864864864865" height="5.404864864864865" rx="0"></rect>
<rect x="156.75108108108108" y="129.72675675675674" width="5.404864864864865" height="5.404864864864865" rx="0"></rect>
<rect x="178.37054054054053" y="129.72675675675674" width="5.404864864864865" height="5.404864864864865" rx="0"></rect>
<rect x="183.7754054054054" y="129.72675675675674" width="5.404864864864865" height="5.404864864864865" rx="0"></rect>
<rect x="189.18027027027026" y="129.72675675675674" width="5.404864864864865" height="5.404864864864865" rx="0"></rect>
<rect x="0.01" y="135.1316216216216" width="5.404864864864865" height="5.404864864864865" rx="0"></rect>
<rect x="10.81972972972973" y="135.1316216216216" width="5.404864864864865" height="5.404864864864865" rx="0"></rect>
<rect x="16.224594594594596" y="135.1316216216216" width="5.404864864864865" height="5.404864864864865" rx="0"></rect>
<rect x="27.034324324324327" y="135.1316216216216" width="5.404864864864865" height="5.404864864864865" rx="0"></rect>
<rect x="37.844054054054055" y="135.1316216216216" width="5.404864864864865" height="5.404864864864865" rx="0"></rect>
<rect x="54.05864864864865" y="135.1316216216216" width="5.404864864864865" height="5.404864864864865" rx="0"></rect>
<rect x="59.46351351351351" y="135.1316216216216" width="5.404864864864865" height="5.404864864864865" rx="0"></rect>
<rect x="70.27324324324324" y="135.1316216216216" width="5.404864864864865" height="5.404864864864865" rx="0"></rect>
<rect x="81.08297297297298" y="135.1316216216216" width="5.404864864864865" height="5.404864864864865" rx="0"></rect>
<rect x="86.48783783783784" y="135.1316216216216" width="5.404864864864865" height="5.404864864864865" rx="0"></rect>
<rect x="113.51216216216217" y="135.1316216216216" width="5.404864864864865" height="5.404864864864865" rx="0"></rect>
<rect x="124.3218918918919" y="135.1316216216216" width="5.404864864864865" height="5.404864864864865" rx="0"></rect>
<rect x="145.94135135135136" y="135.1316216216216" width="5.404864864864865" height="5.404864864864865" rx="0"></rect>
<rect x="162.15594594594594" y="135.1316216216216" width="5.404864864864865" height="5.404864864864865" rx="0"></rect>
<rect x="167.5608108108108" y="135.1316216216216" width="5.404864864864865" height="5.404864864864865" rx="0"></rect>
<rect x="172.96567567567567" y="135.1316216216216" width="5.404864864864865" height="5.404864864864865" rx="0"></rect>
<rect x="178.37054054054053" y="135.1316216216216" width="5.404864864864865" height="5.404864864864865" rx="0"></rect>
<rect x="183.7754054054054" y="135.1316216216216" width="5.404864864864865" height="5.404864864864865" rx="0"></rect>
<rect x="0.01" y="140.53648648648647" width="5.404864864864865" height="5.404864864864865" rx="0"></rect>
<rect x="27.034324324324327" y="140.53648648648647" width="5.404864864864865" height="5.404864864864865" rx="0"></rect>
<rect x="32.439189189189186" y="140.53648648648647" width="5.404864864864865" height="5.404864864864865" rx="0"></rect>
<rect x="37.844054054054055" y="140.53648648648647" width="5.404864864864865" height="5.404864864864865" rx="0"></rect>
<rect x="43.24891891891892" y="140.53648648648647" width="5.404864864864865" height="5.404864864864865" rx="0"></rect>
<rect x="48.65378378378378" y="140.53648648648647" width="5.404864864864865" height="5.404864864864865" rx="0"></rect>
<rect x="54.05864864864865" y="140.53648648648647" width="5.404864864864865" height="5.404864864864865" rx="0"></rect>
<rect x="59.46351351351351" y="140.53648648648647" width="5.404864864864865" height="5.404864864864865" rx="0"></rect>
<rect x="70.27324324324324" y="140.53648648648647" width="5.404864864864865" height="5.404864864864865" rx="0"></rect>
<rect x="86.48783783783784" y="140.53648648648647" width="5.404864864864865" height="5.404864864864865" rx="0"></rect>
<rect x="97.29756756756757" y="140.53648648648647" width="5.404864864864865" height="5.404864864864865" rx="0"></rect>
<rect x="102.70243243243245" y="140.53648648648647" width="5.404864864864865" height="5.404864864864865" rx="0"></rect>
<rect x="108.10729729729731" y="140.53648648648647" width="5.404864864864865" height="5.404864864864865" rx="0"></rect>
<rect x="113.51216216216217" y="140.53648648648647" width="5.404864864864865" height="5.404864864864865" rx="0"></rect>
<rect x="118.91702702702703" y="140.53648648648647" width="5.404864864864865" height="5.404864864864865" rx="0"></rect>
<rect x="129.72675675675674" y="140.53648648648647" width="5.404864864864865" height="5.404864864864865" rx="0"></rect>
<rect x="135.1316216216216" y="140.53648648648647" width="5.404864864864865" height="5.404864864864865" rx="0"></rect>
<rect x="140.53648648648647" y="140.53648648648647" width="5.404864864864865" height="5.404864864864865" rx="0"></rect>
<rect x="145.94135135135136" y="140.53648648648647" width="5.404864864864865" height="5.404864864864865" rx="0"></rect>
<rect x="151.34621621621622" y="140.53648648648647" width="5.404864864864865" height="5.404864864864865" rx="0"></rect>
<rect x="162.15594594594594" y="140.53648648648647" width="5.404864864864865" height="5.404864864864865" rx="0"></rect>
<rect x="172.96567567567567" y="140.53648648648647" width="5.404864864864865" height="5.404864864864865" rx="0"></rect>
<rect x="183.7754054054054" y="140.53648648648647" width="5.404864864864865" height="5.404864864864865" rx="0"></rect>
<rect x="189.18027027027026" y="140.53648648648647" width="5.404864864864865" height="5.404864864864865" rx="0"></rect>
<rect x="194.58513513513512" y="140.53648648648647" width="5.404864864864865" height="5.404864864864865" rx="0"></rect>
<rect x="0.01" y="145.94135135135136" width="5.404864864864865" height="5.404864864864865" rx="0"></rect>
<rect x="16.224594594594596" y="145.94135135135136" width="5.404864864864865" height="5.404864864864865" rx="0"></rect>
<rect x="43.24891891891892" y="145.94135135135136" width="5.404864864864865" height="5.404864864864865" rx="0"></rect>
<rect x="48.65378378378378" y="145.94135135135136" width="5.404864864864865" height="5.404864864864865" rx="0"></rect>
<rect x="59.46351351351351" y="145.94135135135136" width="5.404864864864865" height="5.404864864864865" rx="0"></rect>
<rect x="70.27324324324324" y="145.94135135135136" width="5.404864864864865" height="5.404864864864865" rx="0"></rect>
<rect x="75.67810810810812" y="145.94135135135136" width="5.404864864864865" height="5.404864864864865" rx="0"></rect>
<rect x="113.51216216216217" y="145.94135135135136" width="5.404864864864865" height="5.404864864864865" rx="0"></rect>
<rect x="118.91702702702703" y="145.94135135135136" width="5.404864864864865" height="5.404864864864865" rx="0"></rect>
<rect x="140.53648648648647" y="145.94135135135136" width="5.404864864864865" height="5.404864864864865" rx="0"></rect>
<rect x="145.94135135135136" y="145.94135135135136" width="5.404864864864865" height="5.404864864864865" rx="0"></rect>
<rect x="156.75108108108108" y="145.94135135135136" width="5.404864864864865" height="5.404864864864865" rx="0"></rect>
<rect x="167.5608108108108" y="145.94135135135136" width="5.404864864864865" height="5.404864864864865" rx="0"></rect>
<rect x="172.96567567567567" y="145.94135135135136" width="5.404864864864865" height="5.404864864864865" rx="0"></rect>
<rect x="178.37054054054053" y="145.94135135135136" width="5.404864864864865" height="5.404864864864865" rx="0"></rect>
<rect x="189.18027027027026" y="145.94135135135136" width="5.404864864864865" height="5.404864864864865" rx="0"></rect>
<rect x="0.01" y="151.34621621621622" width="5.404864864864865" height="5.404864864864865" rx="0"></rect>
<rect x="21.62945945945946" y="151.34621621621622" width="5.404864864864865" height="5.404864864864865" rx="0"></rect>
<rect x="27.034324324324327" y="151.34621621621622" width="5.404864864864865" height="5.404864864864865" rx="0"></rect>
<rect x="32.439189189189186" y="151.34621621621622" width="5.404864864864865" height="5.404864864864865" rx="0"></rect>
<rect x="43.24891891891892" y="151.34621621621622" width="5.404864864864865" height="5.404864864864865" rx="0"></rect>
<rect x="59.46351351351351" y="151.34621621621622" width="5.404864864864865" height="5.404864864864865" rx="0"></rect>
<rect x="70.27324324324324" y="151.34621621621622" width="5.404864864864865" height="5.404864864864865" rx="0"></rect>
<rect x="118.91702702702703" y="151.34621621621622" width="5.404864864864865" height="5.404864864864865" rx="0"></rect>
<rect x="135.1316216216216" y="151.34621621621622" width="5.404864864864865" height="5.404864864864865" rx="0"></rect>
<rect x="140.53648648648647" y="151.34621621621622" width="5.404864864864865" height="5.404864864864865" rx="0"></rect>
<rect x="145.94135135135136" y="151.34621621621622" width="5.404864864864865" height="5.404864864864865" rx="0"></rect>
<rect x="151.34621621621622" y="151.34621621621622" width="5.404864864864865" height="5.404864864864865" rx="0"></rect>
<rect x="156.75108108108108" y="151.34621621621622" width="5.404864864864865" height="5.404864864864865" rx="0"></rect>
<rect x="162.15594594594594" y="151.34621621621622" width="5.404864864864865" height="5.404864864864865" rx="0"></rect>
<rect x="167.5608108108108" y="151.34621621621622" width="5.404864864864865" height="5.404864864864865" rx="0"></rect>
<rect x="172.96567567567567" y="151.34621621621622" width="5.404864864864865" height="5.404864864864865" rx="0"></rect>
<rect x="178.37054054054053" y="151.34621621621622" width="5.404864864864865" height="5.404864864864865" rx="0"></rect>
<rect x="189.18027027027026" y="151.34621621621622" width="5.404864864864865" height="5.404864864864865" rx="0"></rect>
<rect x="43.24891891891892" y="156.75108108108108" width="5.404864864864865" height="5.404864864864865" rx="0"></rect>
<rect x="48.65378378378378" y="156.75108108108108" width="5.404864864864865" height="5.404864864864865" rx="0"></rect>
<rect x="59.46351351351351" y="156.75108108108108" width="5.404864864864865" height="5.404864864864865" rx="0"></rect>
<rect x="64.86837837837838" y="156.75108108108108" width="5.404864864864865" height="5.404864864864865" rx="0"></rect>
<rect x="75.67810810810812" y="156.75108108108108" width="5.404864864864865" height="5.404864864864865" rx="0"></rect>
<rect x="81.08297297297298" y="156.75108108108108" width="5.404864864864865" height="5.404864864864865" rx="0"></rect>
<rect x="86.48783783783784" y="156.75108108108108" width="5.404864864864865" height="5.404864864864865" rx="0"></rect>
<rect x="91.8927027027027" y="156.75108108108108" width="5.404864864864865" height="5.404864864864865" rx="0"></rect>
<rect x="102.70243243243245" y="156.75108108108108" width="5.404864864864865" height="5.404864864864865" rx="0"></rect>
<rect x="113.51216216216217" y="156.75108108108108" width="5.404864864864865" height="5.404864864864865" rx="0"></rect>
<rect x="118.91702702702703" y="156.75108108108108" width="5.404864864864865" height="5.404864864864865" rx="0"></rect>
<rect x="124.3218918918919" y="156.75108108108108" width="5.404864864864865" height="5.404864864864865" rx="0"></rect>
<rect x="135.1316216216216" y="156.75108108108108" width="5.404864864864865" height="5.404864864864865" rx="0"></rect>
<rect x="145.94135135135136" y="156.75108108108108" width="5.404864864864865" height="5.404864864864865" rx="0"></rect>
<rect x="151.34621621621622" y="156.75108108108108" width="5.404864864864865" height="5.404864864864865" rx="0"></rect>
<rect x="172.96567567567567" y="156.75108108108108" width="5.404864864864865" height="5.404864864864865" rx="0"></rect>
<rect x="43.24891891891892" y="162.15594594594594" width="5.404864864864865" height="5.404864864864865" rx="0"></rect>
<rect x="48.65378378378378" y="162.15594594594594" width="5.404864864864865" height="5.404864864864865" rx="0"></rect>
<rect x="64.86837837837838" y="162.15594594594594" width="5.404864864864865" height="5.404864864864865" rx="0"></rect>
<rect x="75.67810810810812" y="162.15594594594594" width="5.404864864864865" height="5.404864864864865" rx="0"></rect>
<rect x="81.08297297297298" y="162.15594594594594" width="5.404864864864865" height="5.404864864864865" rx="0"></rect>
<rect x="86.48783783783784" y="162.15594594594594" width="5.404864864864865" height="5.404864864864865" rx="0"></rect>
<rect x="91.8927027027027" y="162.15594594594594" width="5.404864864864865" height="5.404864864864865" rx="0"></rect>
<rect x="113.51216216216217" y="162.15594594594594" width="5.404864864864865" height="5.404864864864865" rx="0"></rect>
<rect x="135.1316216216216" y="162.15594594594594" width="5.404864864864865" height="5.404864864864865" rx="0"></rect>
<rect x="140.53648648648647" y="162.15594594594594" width="5.404864864864865" height="5.404864864864865" rx="0"></rect>
<rect x="151.34621621621622" y="162.15594594594594" width="5.404864864864865" height="5.404864864864865" rx="0"></rect>
<rect x="162.15594594594594" y="162.15594594594594" width="5.404864864864865" height="5.404864864864865" rx="0"></rect>
<rect x="172.96567567567567" y="162.15594594594594" width="5.404864864864865" height="5.404864864864865" rx="0"></rect>
<rect x="178.37054054054053" y="162.15594594594594" width="5.404864864864865" height="5.404864864864865" rx="0"></rect>
<rect x="194.58513513513512" y="162.15594594594594" width="5.404864864864865" height="5.404864864864865" rx="0"></rect>
<rect x="43.24891891891892" y="167.5608108108108" width="5.404864864864865" height="5.404864864864865" rx="0"></rect>
<rect x="48.65378378378378" y="167.5608108108108" width="5.404864864864865" height="5.404864864864865" rx="0"></rect>
<rect x="54.05864864864865" y="167.5608108108108" width="5.404864864864865" height="5.404864864864865" rx="0"></rect>
<rect x="59.46351351351351" y="167.5608108108108" width="5.404864864864865" height="5.404864864864865" rx="0"></rect>
<rect x="91.8927027027027" y="167.5608108108108" width="5.404864864864865" height="5.404864864864865" rx="0"></rect>
<rect x="102.70243243243245" y="167.5608108108108" width="5.404864864864865" height="5.404864864864865" rx="0"></rect>
<rect x="108.10729729729731" y="167.5608108108108" width="5.404864864864865" height="5.404864864864865" rx="0"></rect>
<rect x="113.51216216216217" y="167.5608108108108" width="5.404864864864865" height="5.404864864864865" rx="0"></rect>
<rect x="118.91702702702703" y="167.5608108108108" width="5.404864864864865" height="5.404864864864865" rx="0"></rect>
<rect x="129.72675675675674" y="167.5608108108108" width="5.404864864864865" height="5.404864864864865" rx="0"></rect>
<rect x="151.34621621621622" y="167.5608108108108" width="5.404864864864865" height="5.404864864864865" rx="0"></rect>
<rect x="172.96567567567567" y="167.5608108108108" width="5.404864864864865" height="5.404864864864865" rx="0"></rect>
<rect x="43.24891891891892" y="172.96567567567567" width="5.404864864864865" height="5.404864864864865" rx="0"></rect>
<rect x="54.05864864864865" y="172.96567567567567" width="5.404864864864865" height="5.404864864864865" rx="0"></rect>
<rect x="59.46351351351351" y="172.96567567567567" width="5.404864864864865" height="5.404864864864865" rx="0"></rect>
<rect x="70.27324324324324" y="172.96567567567567" width="5.404864864864865" height="5.404864864864865" rx="0"></rect>
<rect x="75.67810810810812" y="172.96567567567567" width="5.404864864864865" height="5.404864864864865" rx="0"></rect>
<rect x="81.08297297297298" y="172.96567567567567" width="5.404864864864865" height="5.404864864864865" rx="0"></rect>
<rect x="86.48783783783784" y="172.96567567567567" width="5.404864864864865" height="5.404864864864865" rx="0"></rect>
<rect x="113.51216216216217" y="172.96567567567567" width="5.404864864864865" height="5.404864864864865" rx="0"></rect>
<rect x="124.3218918918919" y="172.96567567567567" width="5.404864864864865" height="5.404864864864865" rx="0"></rect>
<rect x="135.1316216216216" y="172.96567567567567" width="5.404864864864865" height="5.404864864864865" rx="0"></rect>
<rect x="145.94135135135136" y="172.96567567567567" width="5.404864864864865" height="5.404864864864865" rx="0"></rect>
<rect x="151.34621621621622" y="172.96567567567567" width="5.404864864864865" height="5.404864864864865" rx="0"></rect>
<rect x="156.75108108108108" y="172.96567567567567" width="5.404864864864865" height="5.404864864864865" rx="0"></rect>
<rect x="162.15594594594594" y="172.96567567567567" width="5.404864864864865" height="5.404864864864865" rx="0"></rect>
<rect x="167.5608108108108" y="172.96567567567567" width="5.404864864864865" height="5.404864864864865" rx="0"></rect>
<rect x="172.96567567567567" y="172.96567567567567" width="5.404864864864865" height="5.404864864864865" rx="0"></rect>
<rect x="183.7754054054054" y="172.96567567567567" width="5.404864864864865" height="5.404864864864865" rx="0"></rect>
<rect x="194.58513513513512" y="172.96567567567567" width="5.404864864864865" height="5.404864864864865" rx="0"></rect>
<rect x="43.24891891891892" y="178.37054054054053" width="5.404864864864865" height="5.404864864864865" rx="0"></rect>
<rect x="81.08297297297298" y="178.37054054054053" width="5.404864864864865" height="5.404864864864865" rx="0"></rect>
<rect x="91.8927027027027" y="178.37054054054053" width="5.404864864864865" height="5.404864864864865" rx="0"></rect>
<rect x="97.29756756756757" y="178.37054054054053" width="5.404864864864865" height="5.404864864864865" rx="0"></rect>
<rect x="108.10729729729731" y="178.37054054054053" width="5.404864864864865" height="5.404864864864865" rx="0"></rect>
<rect x="113.51216216216217" y="178.37054054054053" width="5.404864864864865" height="5.404864864864865" rx="0"></rect>
<rect x="118.91702702702703" y="178.37054054054053" width="5.404864864864865" height="5.404864864864865" rx="0"></rect>
<rect x="129.72675675675674" y="178.37054054054053" width="5.404864864864865" height="5.404864864864865" rx="0"></rect>
<rect x="140.53648648648647" y="178.37054054054053" width="5.404864864864865" height="5.404864864864865" rx="0"></rect>
<rect x="145.94135135135136" y="178.37054054054053" width="5.404864864864865" height="5.404864864864865" rx="0"></rect>
<rect x="151.34621621621622" y="178.37054054054053" width="5.404864864864865" height="5.404864864864865" rx="0"></rect>
<rect x="162.15594594594594" y="178.37054054054053" width="5.404864864864865" height="5.404864864864865" rx="0"></rect>
<rect x="167.5608108108108" y="178.37054054054053" width="5.404864864864865" height="5.404864864864865" rx="0"></rect>
<rect x="172.96567567567567" y="178.37054054054053" width="5.404864864864865" height="5.404864864864865" rx="0"></rect>
<rect x="183.7754054054054" y="178.37054054054053" width="5.404864864864865" height="5.404864864864865" rx="0"></rect>
<rect x="43.24891891891892" y="183.7754054054054" width="5.404864864864865" height="5.404864864864865" rx="0"></rect>
<rect x="59.46351351351351" y="183.7754054054054" width="5.404864864864865" height="5.404864864864865" rx="0"></rect>
<rect x="81.08297297297298" y="183.7754054054054" width="5.404864864864865" height="5.404864864864865" rx="0"></rect>
<rect x="102.70243243243245" y="183.7754054054054" width="5.404864864864865" height="5.404864864864865" rx="0"></rect>
<rect x="118.91702702702703" y="183.7754054054054" width="5.404864864864865" height="5.404864864864865" rx="0"></rect>
<rect x="135.1316216216216" y="183.7754054054054" width="5.404864864864865" height="5.404864864864865" rx="0"></rect>
<rect x="140.53648648648647" y="183.7754054054054" width="5.404864864864865" height="5.404864864864865" rx="0"></rect>
<rect x="151.34621621621622" y="183.7754054054054" width="5.404864864864865" height="5.404864864864865" rx="0"></rect>
<rect x="156.75108108108108" y="183.7754054054054" width="5.404864864864865" height="5.404864864864865" rx="0"></rect>
<rect x="167.5608108108108" y="183.7754054054054" width="5.404864864864865" height="5.404864864864865" rx="0"></rect>
<rect x="178.37054054054053" y="183.7754054054054" width="5.404864864864865" height="5.404864864864865" rx="0"></rect>
<rect x="194.58513513513512" y="183.7754054054054" width="5.404864864864865" height="5.404864864864865" rx="0"></rect>
<rect x="43.24891891891892" y="189.18027027027026" width="5.404864864864865" height="5.404864864864865" rx="0"></rect>
<rect x="48.65378378378378" y="189.18027027027026" width="5.404864864864865" height="5.404864864864865" rx="0"></rect>
<rect x="54.05864864864865" y="189.18027027027026" width="5.404864864864865" height="5.404864864864865" rx="0"></rect>
<rect x="59.46351351351351" y="189.18027027027026" width="5.404864864864865" height="5.404864864864865" rx="0"></rect>
<rect x="70.27324324324324" y="189.18027027027026" width="5.404864864864865" height="5.404864864864865" rx="0"></rect>
<rect x="75.67810810810812" y="189.18027027027026" width="5.404864864864865" height="5.404864864864865" rx="0"></rect>
<rect x="86.48783783783784" y="189.18027027027026" width="5.404864864864865" height="5.404864864864865" rx="0"></rect>
<rect x="102.70243243243245" y="189.18027027027026" width="5.404864864864865" height="5.404864864864865" rx="0"></rect>
<rect x="108.10729729729731" y="189.18027027027026" width="5.404864864864865" height="5.404864864864865" rx="0"></rect>
<rect x="113.51216216216217" y="189.18027027027026" width="5.404864864864865" height="5.404864864864865" rx="0"></rect>
<rect x="118.91702702702703" y="189.18027027027026" width="5.404864864864865" height="5.404864864864865" rx="0"></rect>
<rect x="129.72675675675674" y="189.18027027027026" width="5.404864864864865" height="5.404864864864865" rx="0"></rect>
<rect x="145.94135135135136" y="189.18027027027026" width="5.404864864864865" height="5.404864864864865" rx="0"></rect>
<rect x="151.34621621621622" y="189.18027027027026" width="5.404864864864865" height="5.404864864864865" rx="0"></rect>
<rect x="156.75108108108108" y="189.18027027027026" width="5.404864864864865" height="5.404864864864865" rx="0"></rect>
<rect x="167.5608108108108" y="189.18027027027026" width="5.404864864864865" height="5.404864864864865" rx="0"></rect>
<rect x="194.58513513513512" y="189.18027027027026" width="5.404864864864865" height="5.404864864864865" rx="0"></rect>
<rect x="54.05864864864865" y="194.58513513513512" width="5.404864864864865" height="5.404864864864865" rx="0"></rect>
<rect x="64.86837837837838" y="194.58513513513512" width="5.404864864864865" height="5.404864864864865" rx="0"></rect>
<rect x="70.27324324324324" y="194.58513513513512" width="5.404864864864865" height="5.404864864864865" rx="0"></rect>
<rect x="81.08297297297298" y="194.58513513513512" width="5.404864864864865" height="5.404864864864865" rx="0"></rect>
<rect x="102.70243243243245" y="194.58513513513512" width="5.404864864864865" height="5.404864864864865" rx="0"></rect>
<rect x="118.91702702702703" y="194.58513513513512" width="5.404864864864865" height="5.404864864864865" rx="0"></rect>
<rect x="135.1316216216216" y="194.58513513513512" width="5.404864864864865" height="5.404864864864865" rx="0"></rect>
<rect x="140.53648648648647" y="194.58513513513512" width="5.404864864864865" height="5.404864864864865" rx="0"></rect>
<rect x="167.5608108108108" y="194.58513513513512" width="5.404864864864865" height="5.404864864864865" rx="0"></rect>
<rect x="183.7754054054054" y="194.58513513513512" width="5.404864864864865" height="5.404864864864865" rx="0"></rect>
<rect x="189.18027027027026" y="194.58513513513512" width="5.404864864864865" height="5.404864864864865" rx="0"></rect>
<rect x="194.58513513513512" y="194.58513513513512" width="5.404864864864865" height="5.404864864864865" rx="0"></rect>
</g>
<g>
<rect x="2.7024324324324325" y="2.7024324324324325" width="32.42918918918919" fill="none" height="32.42918918918919" stroke-width="5.404864864864865" stroke="#ffffff"></rect>
<rect x="10.80972972972973" y="10.80972972972973" width="16.214594594594594" fill="#ffffff" height="16.214594594594594"></rect>
<rect x="164.86837837837837" y="2.7024324324324325" width="32.42918918918919" fill="none" height="32.42918918918919" stroke-width="5.404864864864865" stroke="#ffffff"></rect>
<rect x="172.9756756756757" y="10.80972972972973" width="16.214594594594594" fill="#ffffff" height="16.214594594594594"></rect>
<rect x="2.7024324324324325" y="164.86837837837837" width="32.42918918918919" fill="none" height="32.42918918918919" stroke-width="5.404864864864865" stroke="#ffffff"></rect>
<rect x="10.80972972972973" y="172.9756756756757" width="16.214594594594594" fill="#ffffff" height="16.214594594594594"></rect>
</g>
</g>
</svg>